Patient4_TMGait_0pt3_03_left_02_GRF.mot
version=1
nRows=65
nColumns=19
inDegrees=no
endheader
time	F1x	F1y	F1z	M1x	M1y	M1z	F2x	F2y	F2z	M2x	M2y	M2z	EC1x	EC1y	EC1z	EC2x	EC2y	EC2z
2.67	1.0689	9.3984	-0.65667	-2.3111	0.39696	7.2308	-10.1279	744.2794	-44.4087	292.6844	53.3396	752.3363	-0.0592	0.0182	-0.0073	-0.0462	0.0165	0.9585
2.6889	0.53706	6.9182	-0.41554	-1.7429	0.1401	5.4969	-10.6929	747.9564	-46.0178	294.4218	54.768	755.2318	-0.0592	0.0182	-0.0073	-0.0462	0.0165	0.9585
2.7077	0.15815	4.7243	-0.21045	-1.2357	-0.051077	3.9401	-11.741	753.8362	-47.6425	297.037	56.3713	760.4227	-0.0592	0.0182	-0.0073	-0.0462	0.0165	0.9585
2.7266	-0.087275	3.0035	-0.05051	-0.83743	-0.18396	2.7096	-13.2526	762.461	-49.198	300.717	58.0705	768.4165	-0.0592	0.0182	-0.0073	-0.0462	0.0165	0.9585
2.7454	-0.22695	1.7871	0.064908	-0.55764	-0.26778	1.8351	-15.1342	774.1557	-50.6589	305.5707	59.8092	779.4371	-0.0592	0.0182	-0.0073	-0.0462	0.0165	0.9585
2.7643	-0.29352	1.0111	0.13934	-0.3795	-0.31039	1.271	-17.2132	788.8247	-52.0305	311.5518	61.5271	793.2437	-0.0592	0.0182	-0.0073	-0.0462	0.0165	0.9585
2.7831	-0.31738	0.55464	0.1754	-0.27011	-0.31769	0.92519	-19.2264	805.8669	-53.2986	318.426	63.1098	809.0676	-0.0592	0.0182	-0.0073	-0.0462	0.0165	0.9585
2.802	-0.32472	0.26534	0.17425	-0.18807	-0.29467	0.68069	-20.8591	824.1689	-54.3943	325.7665	64.3685	825.6482	-0.0592	0.0182	-0.0073	-0.0462	0.0165	0.9585
2.8209	-0.33451	-0.015935	0.13715	-0.089948	-0.245	0.40365	-21.8073	842.153	-55.2008	332.9662	65.0684	841.3193	-0.0592	0.0182	-0.0073	-0.0462	0.0165	0.9585
2.8397	-0.35644	-0.441	0.066059	0.067506	-0.17158	-0.042974	-21.8369	857.9287	-55.6013	339.2903	65.0028	854.1914	-0.0592	0.0182	-0.0073	-0.0462	0.0165	0.9585
2.8586	-0.3937	-1.1438	-0.036995	0.32271	-0.075588	-0.7904	-20.8311	869.5181	-55.5262	343.9621	64.0551	862.3772	-0.0592	0.0182	-0.0073	-0.0462	0.0165	0.9585
2.8774	-0.44549	-2.2236	-0.17353	0.705	0.045914	-1.9444	-18.8133	875.1549	-54.9595	346.2844	62.2142	864.2719	-0.0592	0.0182	-0.0073	-0.0462	0.0165	0.9585
2.8963	-0.50165	-3.7165	-0.34695	1.2258	0.20166	-3.551	-15.9065	873.6327	-53.9313	345.7791	59.5588	858.8599	-0.0592	0.0182	-0.0073	-0.0462	0.0165	0.9585
2.9151	-0.53638	-5.5633	-0.55468	1.8648	0.40021	-5.5519	-12.2809	864.547	-52.5218	342.2833	56.2361	845.9124	-0.0592	0.0182	-0.0073	-0.0462	0.0165	0.9585
2.934	-0.50321	-7.5544	-0.77724	2.5487	0.63957	-7.7297	-8.1333	848.3099	-50.8523	335.9574	52.4481	825.9733	-0.0592	0.0182	-0.0073	-0.0462	0.0165	0.9585
2.9529	-0.33762	-9.2621	-0.97378	3.1279	0.9007	-9.6362	-3.6749	826.0051	-49.0722	327.2263	48.4333	800.1996	-0.0592	0.0182	-0.0073	-0.0462	0.0165	0.9585
2.9717	0.038649	-9.9616	-1.0792	3.3526	1.1415	-10.5092	0.88447	799.1678	-47.3448	316.6943	44.445	770.1448	-0.0592	0.0182	-0.0073	-0.0462	0.0165	0.9585
2.9906	0.71319	-8.5731	-0.99497	2.8557	1.2861	-9.2078	5.3464	769.5324	-45.8228	305.0452	40.7224	737.52	-0.0592	0.0182	-0.0073	-0.0462	0.0165	0.9585
3.0094	1.7699	-3.6464	-0.58552	1.1496	1.2191	-4.1894	9.5521	738.7743	-44.607	292.9408	37.4385	703.9537	-0.0592	0.0182	-0.0073	-0.0462	0.0165	0.9585
3.0283	3.2641	6.5782	0.31468	-2.3551	0.78065	6.4343	13.4022	708.3136	-43.7203	280.9396	34.6661	670.8207	-0.0592	0.0182	-0.0073	-0.0462	0.0165	0.9585
3.0471	5.1856	23.9828	1.8843	-8.2841	-0.22812	24.6948	16.8411	679.1516	-43.1031	269.4318	32.3809	639.0975	-0.0592	0.0182	-0.0073	-0.0462	0.0165	0.9585
3.066	7.3997	50.1818	4.2807	-17.1655	-2.0279	52.3598	19.8281	651.7387	-42.628	258.5867	30.4841	609.2599	-0.0592	0.0182	-0.0073	-0.0462	0.0165	0.9585
3.0849	9.5514	85.8935	7.5888	-29.2179	-4.8381	90.2846	22.3056	625.8815	-42.1333	248.3169	28.8451	581.2041	-0.0592	0.0182	-0.0073	-0.0462	0.0165	0.9585
3.1037	10.8405	130.2201	11.7638	-44.1085	-8.8891	137.645	24.1783	600.7663	-41.4633	238.2906	27.344	554.2669	-0.0592	0.0182	-0.0073	-0.0462	0.0165	0.9585
3.1226	10.349	180.22	16.5934	-60.8146	-14.259	191.4624	25.2996	575.2276	-40.5088	228.0409	25.9154	527.4654	-0.0592	0.0182	-0.0073	-0.0462	0.0165	0.9585
3.1414	7.8885	231.5475	21.6656	-77.8568	-20.5606	247.1989	25.5016	548.2888	-39.2285	217.1822	24.5647	499.9739	-0.0592	0.0182	-0.0073	-0.0462	0.0165	0.9585
3.1603	3.8262	280.5416	26.4542	-94.0091	-27.1116	300.9592	24.6968	519.626	-37.6613	205.5944	23.3477	471.5233	-0.0592	0.0182	-0.0073	-0.0462	0.0165	0.9585
3.1791	-1.358	325.4531	30.4823	-108.6985	-33.2449	350.8758	22.9668	489.5553	-35.8886	193.4171	22.3044	442.3736	-0.0592	0.0182	-0.0073	-0.0462	0.0165	0.9585
3.198	-7.2164	365.7437	33.5219	-121.7581	-38.5676	396.3557	20.5628	458.6486	-33.9637	180.8973	21.3944	412.9701	-0.0592	0.0182	-0.0073	-0.0462	0.0165	0.9585
3.2169	-13.2742	401.2187	35.5852	-133.132	-42.9323	437.0777	17.8367	427.4288	-31.9026	168.2642	20.508	383.6898	-0.0592	0.0182	-0.0073	-0.0462	0.0165	0.9585
3.2357	-18.9722	431.8145	36.8699	-142.8124	-46.3549	472.7396	15.1417	396.3061	-29.7278	155.7011	19.5349	354.7999	-0.0592	0.0182	-0.0073	-0.0462	0.0165	0.9585
3.2546	-23.761	457.7412	37.6041	-150.8984	-48.8817	503.2433	12.7516	365.6626	-27.4895	143.3796	18.4154	326.5528	-0.0592	0.0182	-0.0073	-0.0462	0.0165	0.9585
3.2734	-27.2575	479.4407	37.9374	-157.5821	-50.533	528.73	10.8368	336.0279	-25.2453	131.5283	17.138	299.3548	-0.0592	0.0182	-0.0073	-0.0462	0.0165	0.9585
3.2923	-29.2434	497.5327	37.9245	-163.1164	-51.2893	549.6005	9.4933	308.1554	-23.0439	120.4587	15.7161	273.8275	-0.0592	0.0182	-0.0073	-0.0462	0.0165	0.9585
3.3111	-29.687	512.6832	37.5959	-167.7555	-51.1694	566.4277	8.7663	282.8717	-20.9234	110.5019	14.173	250.6759	-0.0592	0.0182	-0.0073	-0.0462	0.0165	0.9585
3.33	-28.7407	525.4001	37.0099	-171.6761	-50.2825	579.7563	8.6597	260.79	-18.9155	101.8937	12.5368	230.4269	-0.0592	0.0182	-0.0073	-0.0462	0.0165	0.9585
3.3489	-26.6819	536.0389	36.2662	-174.9799	-48.8201	590.0763	9.1259	242.0646	-17.0599	94.6755	10.8543	213.2106	-0.0592	0.0182	-0.0073	-0.0462	0.0165	0.9585
3.3677	-23.8619	544.9711	35.5088	-177.7547	-47.0442	597.968	10.0368	226.2876	-15.4103	88.6575	9.2108	198.6709	-0.0592	0.0182	-0.0073	-0.0462	0.0165	0.9585
3.3866	-20.6767	552.7017	34.9201	-180.1185	-45.2758	604.1857	11.1841	212.5577	-14.0214	83.4537	7.7188	186.0266	-0.0592	0.0182	-0.0073	-0.0462	0.0165	0.9585
3.4054	-17.4927	559.8874	34.692	-182.2397	-43.839	609.6099	12.3102	199.676	-12.9257	78.5649	6.4875	174.2413	-0.0592	0.0182	-0.0073	-0.0462	0.0165	0.9585
3.4243	-14.5609	567.2883	34.9928	-184.3386	-42.9963	615.1636	13.1523	186.4106	-12.1109	73.4853	5.5894	162.2555	-0.0592	0.0182	-0.0073	-0.0462	0.0165	0.9585
3.4431	-12.0018	575.643	35.9432	-186.6509	-42.9175	621.6808	13.4998	171.7612	-11.5201	67.8087	5.0428	149.2106	-0.0592	0.0182	-0.0073	-0.0462	0.0165	0.9585
3.462	-9.8155	585.5514	37.5845	-189.3897	-43.6496	629.793	13.2361	155.2192	-11.0659	61.3326	4.8089	134.6599	-0.0592	0.0182	-0.0073	-0.0462	0.0165	0.9585
3.4809	-7.9171	597.4032	39.8629	-192.7172	-45.1144	639.8829	12.3533	136.8984	-10.6453	54.1077	4.8012	118.6816	-0.0592	0.0182	-0.0073	-0.0462	0.0165	0.9585
3.4997	-6.2167	611.3196	42.6591	-196.7138	-47.1657	652.0641	10.9317	117.4282	-10.1513	46.3938	4.9027	101.7943	-0.0592	0.0182	-0.0073	-0.0462	0.0165	0.9585
3.5186	-4.68	627.145	45.8284	-201.3622	-49.6516	666.198	9.1114	97.7083	-9.4924	38.5605	4.9957	84.747	-0.0592	0.0182	-0.0073	-0.0462	0.0165	0.9585
3.5374	-3.356	644.5761	49.24	-206.5823	-52.4566	682.022	7.0526	78.6775	-8.611	30.9937	4.985	68.3298	-0.0592	0.0182	-0.0073	-0.0462	0.0165	0.9585
3.5563	-2.3821	663.4054	52.798	-212.3097	-55.518	699.3785	4.9158	61.1438	-7.504	24.0246	4.8148	53.235	-0.0592	0.0182	-0.0073	-0.0462	0.0165	0.9585
3.5751	-1.9511	683.7631	56.4325	-218.5807	-58.8054	718.4421	2.8721	45.6924	-6.227	17.8908	4.4692	39.9647	-0.0592	0.0182	-0.0073	-0.0462	0.0165	0.9585
3.594	-2.229	706.2171	60.087	-225.5719	-62.2875	739.7906	1.1007	32.6574	-4.8774	12.7261	3.9617	28.8037	-0.0592	0.0182	-0.0073	-0.0462	0.0165	0.9585
3.6129	-3.2767	731.5527	63.717	-233.5329	-65.9109	764.1599	-0.2404	22.16	-3.5618	8.5749	3.323	19.8535	-0.0592	0.0182	-0.0073	-0.0462	0.0165	0.9585
3.6317	-4.989	760.3781	67.3044	-242.6577	-69.6024	792.0325	-1.0482	14.1553	-2.3785	5.4139	2.5962	13.0629	-0.0592	0.0182	-0.0073	-0.0462	0.0165	0.9585
3.6506	-7.0942	792.7652	70.844	-252.9683	-73.2627	823.2869	-1.3456	8.4791	-1.4066	3.1742	1.8566	8.2718	-0.0592	0.0182	-0.0073	-0.0462	0.0165	0.9585
3.6694	-9.2106	827.9924	74.3012	-264.234	-76.7432	856.982	-1.3061	4.8476	-0.68245	1.7421	1.202	5.2267	-0.0592	0.0182	-0.0073	-0.0462	0.0165	0.9585
3.6883	-10.9084	864.3563	77.598	-275.9071	-79.8462	891.2173	-1.0933	2.824	-0.19318	0.94636	0.68522	3.5479	-0.0592	0.0182	-0.0073	-0.0462	0.0165	0.9585
3.7071	-11.7994	899.0802	80.6241	-287.0867	-82.3603	923.0926	-0.81957	1.9197	0.10454	0.59545	0.31362	2.8055	-0.0592	0.0182	-0.0073	-0.0462	0.0165	0.9585
3.726	-11.6673	928.4883	83.2236	-296.5756	-84.0868	948.9241	-0.55247	1.6736	0.26563	0.50969	0.063984	2.5894	-0.0592	0.0182	-0.0073	-0.0462	0.0165	0.9585
3.7449	-10.4998	948.5982	85.1891	-303.0826	-84.8471	964.8501	-0.31999	1.6806	0.3458	0.53237	-0.1073	2.5326	-0.0592	0.0182	-0.0073	-0.0462	0.0165	0.9585
3.7637	-8.4335	956.0185	86.2834	-305.5136	-84.4872	967.6737	-0.12134	1.6036	0.39577	0.5336	-0.25154	2.3249	-0.0592	0.0182	-0.0073	-0.0462	0.0165	0.9585
3.7826	-5.6437	948.7895	86.2841	-303.247	-82.8796	955.6286	0.058608	1.176	0.45689	0.41062	-0.41462	1.7116	-0.0592	0.0182	-0.0073	-0.0462	0.0165	0.9585
3.8014	-2.2585	926.8598	85.0567	-296.2872	-79.9632	928.8222	0.23733	0.20664	0.55596	0.091002	-0.62694	0.5035	-0.0592	0.0182	-0.0073	-0.0462	0.0165	0.9585
3.8203	1.6718	892.0881	82.6057	-285.2563	-75.7812	889.2086	0.42986	-1.4022	0.70092	-0.46242	-0.89604	-1.3985	-0.0592	0.0182	-0.0073	-0.0462	0.0165	0.9585
3.8391	6.1513	847.8944	79.1	-271.2729	-70.5077	840.2294	0.64393	-3.6185	0.87571	-1.2398	-1.2014	-3.9556	-0.0592	0.0182	-0.0073	-0.0462	0.0165	0.9585
3.858	11.1996	798.7276	74.8532	-255.7784	-64.4358	786.2826	0.87333	-6.2225	1.0372	-2.1646	-1.4908	-6.9228	-0.0592	0.0182	-0.0073	-0.0462	0.0165	0.9585
3.8769	16.824	749.4526	70.2619	-240.3407	-57.9261	732.1208	1.0873	-8.7293	1.11	-3.0675	-1.6715	-9.7564	-0.0592	0.0182	-0.0073	-0.0462	0.0165	0.9585
